<?xml version="1.0" encoding="utf-8"?>
<!-- Generator: Adobe Illustrator 22.0.0, SVG Export Plug-In . SVG Version: 6.00 Build 0)  -->
<svg version="1.1" id="Layer_1" xmlns="http://www.w3.org/2000/svg" xmlns:xlink="http://www.w3.org/1999/xlink" x="0px" y="0px"
	 viewBox="0 0 50 50" style="enable-background:new 0 0 50 50;" xml:space="preserve">
<style type="text/css">
	.st0{clip-path:url(#SVGID_2_);}
	.st1{fill:#333333;}
	.st2{fill:#F9BA48;}
</style>
<g>
	<defs>
		<rect id="SVGID_1_" y="0.1" width="50" height="50"/>
	</defs>
	<clipPath id="SVGID_2_">
		<use xlink:href="#SVGID_1_"  style="overflow:visible;"/>
	</clipPath>
	<g class="st0">
		<path class="st1" d="M42.2,2.1L42.2,2.1h-4.5H13.9v21.5h1.5v-20h22.3v3.7H16.8v15.6h20.8v23.7H15.4v-4.5h-1.5v5.9h23.7h4.5h0.1
			c3.2,0,5.8-2.6,5.8-5.8V7.9C48,4.7,45.4,2.1,42.2,2.1z M18.3,21.4V8.8h19.3v12.6H18.3z M39.1,46.6v-43h1.5v43H39.1z M42.1,8.8h1.5
			v12.6h-1.5V8.8z M46.5,42.3c0,2.4-2,4.4-4.4,4.4h-0.1V22.9h3V7.3h-3V3.6h0.1c2.4,0,4.4,2,4.4,4.4V42.3z"/>
		<path class="st2" d="M11.6,22.9c-5.3,0-9.6,4.3-9.6,9.6v0.3c0,2.9,1.3,5.6,3.5,7.4l6.2,5.1l6.2-5.1c2.2-1.8,3.5-4.5,3.5-7.4v-0.3
			C21.3,27.2,17,22.9,11.6,22.9z M11.6,37c-2.5,0-4.5-2-4.5-4.5s2-4.5,4.5-4.5s4.5,2,4.5,4.5S14.1,37,11.6,37z"/>
		<path class="st1" d="M16.8,32.5c0-2.9-2.3-5.2-5.2-5.2s-5.2,2.3-5.2,5.2c0,2.9,2.3,5.2,5.2,5.2S16.8,35.4,16.8,32.5z M11.6,36.2
			c-2,0-3.7-1.7-3.7-3.7s1.7-3.7,3.7-3.7s3.7,1.7,3.7,3.7S13.7,36.2,11.6,36.2z"/>
	</g>
</g>
</svg>
