<?xml version="1.0" encoding="utf-8"?>
<!-- Generator: Adobe Illustrator 22.0.0, SVG Export Plug-In . SVG Version: 6.00 Build 0)  -->
<svg version="1.1" id="Layer_1" xmlns="http://www.w3.org/2000/svg" xmlns:xlink="http://www.w3.org/1999/xlink" x="0px" y="0px"
	 viewBox="0 0 50 50" style="enable-background:new 0 0 50 50;" xml:space="preserve">
<style type="text/css">
	.st0{clip-path:url(#SVGID_2_);}
	.st1{fill:#F9BA48;}
	.st2{fill:#333333;}
</style>
<g>
	<defs>
		<rect id="SVGID_1_" x="0.8" y="0.1" width="49.3" height="49.3"/>
	</defs>
	<clipPath id="SVGID_2_">
		<use xlink:href="#SVGID_1_"  style="overflow:visible;"/>
	</clipPath>
	<g class="st0">
		<path class="st1" d="M5.1,19.2v18.7h15.6V19.2H5.1z M18.4,35.6H7.5v-0.8c0-3,2.4-5.4,5.4-5.4c-2.1,0-3.9-1.7-3.9-3.9
			s1.7-3.9,3.9-3.9s3.9,1.7,3.9,3.9s-1.7,3.9-3.9,3.9c3,0,5.4,2.4,5.4,5.4V35.6z"/>
		<g>
			<path class="st2" d="M47.2,12.2H31.6v1.6h15.6c0.4,0,0.8,0.3,0.8,0.8v28c0,0.4-0.3,0.8-0.8,0.8H3.6c-0.4,0-0.8-0.3-0.8-0.8v-28
				c0-0.4,0.3-0.8,0.8-0.8h15.6v-1.6H3.6c-1.3,0-2.3,1-2.3,2.3v28c0,1.3,1,2.3,2.3,2.3h43.6c1.3,0,2.3-1,2.3-2.3v-28
				C49.5,13.3,48.5,12.2,47.2,12.2z"/>
			<path class="st2" d="M6.7,34.8v1.6h12.5v-1.6c0-2.4-1.4-4.6-3.5-5.6c1.2-0.9,1.9-2.2,1.9-3.8c0-2.6-2.1-4.7-4.7-4.7
				s-4.7,2.1-4.7,4.7c0,1.5,0.8,2.9,1.9,3.8C8.1,30.2,6.7,32.4,6.7,34.8z M9.8,25.5c0-1.7,1.4-3.1,3.1-3.1s3.1,1.4,3.1,3.1
				c0,1.7-1.4,3.1-3.1,3.1S9.8,27.2,9.8,25.5z M12.9,30.1c2.6,0,4.7,2.1,4.7,4.7H8.2C8.2,32.2,10.3,30.1,12.9,30.1z"/>
			<path class="st2" d="M23.2,16.9h4.3c1.4,0,2.5-1.1,2.5-2.5V4.4h-9.3v9.9C20.7,15.8,21.8,16.9,23.2,16.9z M22.3,6h6.2v8.4
				c0,0.5-0.4,1-1,1h-4.3c-0.5,0-1-0.4-1-1V6z"/>
			<path class="st2" d="M25.4,11.5c1.3,0,2.3-1,2.3-2.3s-1-2.3-2.3-2.3S23,7.8,23,9.1S24.1,11.5,25.4,11.5z M25.4,8.3
				c0.4,0,0.8,0.3,0.8,0.8s-0.3,0.8-0.8,0.8s-0.8-0.3-0.8-0.8S24.9,8.3,25.4,8.3z"/>
			<rect x="23.8" y="21.6" class="st2" width="22.6" height="1.6"/>
			<rect x="23.8" y="25.5" class="st2" width="22.6" height="1.6"/>
			<rect x="23.8" y="29.4" class="st2" width="22.6" height="1.6"/>
			<rect x="35.5" y="33.2" class="st2" width="10.9" height="1.6"/>
		</g>
	</g>
</g>
</svg>
