<?xml version="1.0" encoding="utf-8"?>
<!-- Generator: Adobe Illustrator 22.0.0, SVG Export Plug-In . SVG Version: 6.00 Build 0)  -->
<svg version="1.1" id="Layer_1" xmlns="http://www.w3.org/2000/svg" xmlns:xlink="http://www.w3.org/1999/xlink" x="0px" y="0px"
	 viewBox="0 0 50 50" style="enable-background:new 0 0 50 50;" xml:space="preserve">
<style type="text/css">
	.st0{clip-path:url(#SVGID_2_);}
	.st1{fill:#F9BA48;}
	.st2{fill:#333333;}
</style>
<g>
	<defs>
		<rect id="SVGID_1_" y="0.1" width="50" height="50"/>
	</defs>
	<clipPath id="SVGID_2_">
		<use xlink:href="#SVGID_1_"  style="overflow:visible;"/>
	</clipPath>
	<g class="st0">
		<rect x="16.1" y="12.2" class="st1" width="17.7" height="9.7"/>
		<g>
			<path class="st2" d="M50,19.5v-4h-8.1v-2.4h1.6V9h-5.6V6.6h1.6v-4h-29v4h1.6V9H6.5v4h1.6v2.4H0v4h1.6v26.6H0v1.6h12.1h25.8H50
				v-1.6h-1.6V19.5H50z M48.4,17.1v0.8h-6.5v-0.8H48.4z M41.9,10.6v0.8h-4v-0.8H41.9z M12.1,4.2h25.8V5H12.1V4.2z M13.7,6.6h22.6V9
				v4v18.5H13.7V13.1V9V6.6z M8.1,10.6h4v0.8h-4V10.6z M1.6,17.1h6.5v0.8H1.6V17.1z M3.2,19.5h4.8v26.6H3.2V19.5z M9.7,46.1V19.5v-4
				v-2.4h2.4v33.1H9.7z M33.1,46.1h-7.3v-9.7h7.3V46.1z M24.2,46.1h-7.3v-9.7h7.3V46.1z M34.7,46.1V34.8H15.3v11.3h-1.6V33.2h22.6
				v12.9H34.7z M37.9,13.1h2.4v2.4v4v26.6h-2.4V13.1z M46.8,46.1h-4.8V19.5h4.8V46.1z"/>
			<rect x="18.5" y="14.7" class="st2" width="12.9" height="1.6"/>
			<rect x="29.8" y="17.9" class="st2" width="1.6" height="1.6"/>
			<rect x="18.5" y="17.9" class="st2" width="9.7" height="1.6"/>
			<rect x="21.8" y="38.9" class="st2" width="1.6" height="4"/>
			<rect x="26.6" y="38.9" class="st2" width="1.6" height="4"/>
		</g>
	</g>
</g>
</svg>
