<?xml version="1.0" encoding="utf-8"?>
<!-- Generator: Adobe Illustrator 22.0.0, SVG Export Plug-In . SVG Version: 6.00 Build 0)  -->
<svg version="1.1" id="Layer_1" xmlns="http://www.w3.org/2000/svg" xmlns:xlink="http://www.w3.org/1999/xlink" x="0px" y="0px"
	 viewBox="0 0 50 50" style="enable-background:new 0 0 50 50;" xml:space="preserve">
<style type="text/css">
	.st0{clip-path:url(#SVGID_2_);}
	.st1{fill:#F9BA48;}
	.st2{fill:#333333;}
</style>
<g>
	<defs>
		<rect id="SVGID_1_" x="-0.5" y="0.1" width="50" height="50"/>
	</defs>
	<clipPath id="SVGID_2_">
		<use xlink:href="#SVGID_1_"  style="overflow:visible;"/>
	</clipPath>
	<g class="st0">
		<path class="st1" d="M24.5,15.7c-4.8,0-8.6,3.9-8.6,8.6s3.9,8.6,8.6,8.6s8.6-3.9,8.6-8.6S29.3,15.7,24.5,15.7z M19.8,24.3
			c-0.9,0-1.6-0.7-1.6-1.6s0.7-1.6,1.6-1.6s1.6,0.7,1.6,1.6S20.7,24.3,19.8,24.3z M27.6,29.8c-0.9,0-1.6-0.7-1.6-1.6
			s0.7-1.6,1.6-1.6s1.6,0.7,1.6,1.6S28.5,29.8,27.6,29.8z"/>
		<g>
			<path class="st2" d="M35,4.7h-6.6V0.8h-7.8v3.9H6.5v44.6h36V11.4L35,4.7z M23.7,13.3h1.6v1.2l-1.6,1.2V13.3z M19.8,11.8V11
				c0-1.3,1.1-2.4,2.4-2.4h4.6c1.3,0,2.4,1.1,2.4,2.4v0.7H19.8z M22.2,2.4h4.7v4.7h-0.1h-4.6h-0.1V2.4z M8.1,47.8V6.3h12.5v1.1
				c-1.4,0.6-2.3,2-2.3,3.6v2.3h3.9v5.5l4.7-3.5v-2h3.9V11c0-1.6-1-3-2.3-3.6V6.3h5.5l0,6.3h7v35.2H8.1z M35.5,7.2l4.2,3.7h-4.2
				L35.5,7.2z"/>
			<rect x="9.6" y="37.6" class="st2" width="29.7" height="1.6"/>
			<rect x="9.6" y="40.7" class="st2" width="29.7" height="1.6"/>
			<rect x="32.3" y="43.8" class="st2" width="7" height="1.6"/>
			<path class="st2" d="M12.8,31.3c1.3,0,2.3-1.1,2.3-2.3c0-0.3-0.1-0.6-0.2-0.9l3.8-3.3c0.3,0.2,0.7,0.3,1.1,0.3
				c0.4,0,0.8-0.1,1.2-0.3l4.3,3.1c0,0.1,0,0.2,0,0.4c0,1.3,1.1,2.3,2.3,2.3c1.3,0,2.3-1.1,2.3-2.3c0-0.4-0.1-0.7-0.3-1.1l4.8-5.4
				c0.3,0.1,0.6,0.2,0.9,0.2c1.3,0,2.3-1.1,2.3-2.3c0-1.3-1.1-2.3-2.3-2.3c-1.3,0-2.3,1.1-2.3,2.3c0,0.4,0.1,0.7,0.3,1.1L28.6,26
				c-0.3-0.1-0.6-0.2-0.9-0.2c-0.6,0-1.1,0.2-1.6,0.6L22,23.5c0.1-0.3,0.2-0.5,0.2-0.8c0-1.3-1.1-2.3-2.3-2.3s-2.3,1.1-2.3,2.3
				c0,0.3,0.1,0.6,0.2,0.9l-3.8,3.3c-0.3-0.2-0.7-0.3-1.1-0.3c-1.3,0-2.3,1.1-2.3,2.3C10.4,30.3,11.5,31.3,12.8,31.3z M35.5,18.8
				c0.4,0,0.8,0.4,0.8,0.8c0,0.4-0.4,0.8-0.8,0.8c-0.4,0-0.8-0.4-0.8-0.8C34.7,19.1,35,18.8,35.5,18.8z M27.6,27.4
				c0.4,0,0.8,0.4,0.8,0.8S28.1,29,27.6,29c-0.4,0-0.8-0.4-0.8-0.8S27.2,27.4,27.6,27.4z M19.8,21.9c0.4,0,0.8,0.4,0.8,0.8
				c0,0.4-0.4,0.8-0.8,0.8c-0.4,0-0.8-0.4-0.8-0.8C19,22.3,19.4,21.9,19.8,21.9z M12.8,28.2c0.4,0,0.8,0.4,0.8,0.8
				c0,0.4-0.4,0.8-0.8,0.8c-0.4,0-0.8-0.4-0.8-0.8C12,28.5,12.3,28.2,12.8,28.2z"/>
			<rect x="9.6" y="34.4" class="st2" width="29.7" height="1.6"/>
		</g>
	</g>
</g>
</svg>
