<svg id="Layer_1" data-name="Layer 1" xmlns="http://www.w3.org/2000/svg" xmlns:xlink="http://www.w3.org/1999/xlink" viewBox="0 0 50 50"><defs><style>.cls-1{fill:none;}.cls-2{clip-path:url(#clip-path);}.cls-3{fill:#f9ba48;}.cls-4{fill:#333;}</style><clipPath id="clip-path"><rect class="cls-1" x="0.21" y="-0.21" width="50" height="50"/></clipPath></defs><title>verifikasi-dokumen</title><g class="cls-2"><circle class="cls-3" cx="25.21" cy="9.05" r="3.1"/><path class="cls-4" d="M6.63.79v48H43.79V.79ZM38.72,42.6l2.9,4.65H8.8l2.9-4.65Zm.86-1.54H26v-7H24.43v7H10.84L8.17,45.32v-41l2.67,4.26h9.78a1.76,1.76,0,0,0-.06.39c0,.08,0,.15,0,.22a8.52,8.52,0,0,0-3.9,7.14v3.09h1.55V16.28a7,7,0,0,1,3.11-5.81,2.6,2.6,0,0,0,.36.21.35.35,0,0,1,.22.37h0a2.75,2.75,0,0,0,0,.5c0,.06,0,.12,0,.17a.85.85,0,0,0,0,.17,5.4,5.4,0,0,0-2.24,4.39v3.09h1.55V16.28A3.84,3.84,0,0,1,23.14,13a1.85,1.85,0,0,0,1.29.06v6.29H26V13.09a2,2,0,0,0,.59.09,1.79,1.79,0,0,0,.71-.16,3.84,3.84,0,0,1,1.8,3.26v3.09h1.55V16.28a5.4,5.4,0,0,0-2.24-4.39c0-.05,0-.11,0-.17s0-.11,0-.17a2.08,2.08,0,0,0,0-.5.36.36,0,0,1,.22-.37,2.12,2.12,0,0,0,.36-.21,7,7,0,0,1,3.12,5.81v3.09h1.55V16.28a8.5,8.5,0,0,0-3.91-7.14,1.46,1.46,0,0,0,0-.22,2.6,2.6,0,0,0-.05-.39h9.78l2.66-4.26V45.32ZM28.25,9.1a.33.33,0,0,1-.17.16l-.27.14a2,2,0,0,0-.88,1.51c0,.1,0,.21,0,.31a.56.56,0,0,1,0,.13.38.38,0,0,1-.13.18l-.07.05a.36.36,0,0,1-.4,0,1.89,1.89,0,0,0-1.13-.37,1.92,1.92,0,0,0-1.14.37.36.36,0,0,1-.4,0l-.06-.05a.32.32,0,0,1-.13-.18.53.53,0,0,1,0-.13,1.92,1.92,0,0,0-1.14-2,.33.33,0,0,1-.17-.16l0,0a.44.44,0,0,1,0-.14.34.34,0,0,1,.22-.33,1.91,1.91,0,0,0,1.14-2,.34.34,0,0,1,.19-.35.36.36,0,0,1,.41,0,1.94,1.94,0,0,0,2.27,0,.37.37,0,0,1,.42,0,.33.33,0,0,1,.18.35,1.92,1.92,0,0,0,1.14,2,.36.36,0,0,1,.23.33.44.44,0,0,1,0,.14ZM28.52,7a.65.65,0,0,1,0-.2,1.88,1.88,0,0,0-.94-1.86A1.91,1.91,0,0,0,25.43,5,.41.41,0,0,1,25,5a1.93,1.93,0,0,0-3.05,1.75.34.34,0,0,1,0,.2H11.7L8.8,2.34H41.62L38.72,7Z"/><rect class="cls-4" x="24.43" y="19.37" width="1.55" height="14.97"/></g></svg>